<svg xmlns="http://www.w3.org/2000/svg" xmlns:xlink="http://www.w3.org/1999/xlink" width="1080" zoomAndPan="magnify" viewBox="0 0 810 809.999993" height="1080" preserveAspectRatio="xMidYMid meet" version="1.0"><defs><clipPath id="edebcaf975"><path d="M 32.058594 0 L 798.558594 0 L 798.558594 759 L 32.058594 759 Z M 32.058594 0 " clip-rule="nonzero"/></clipPath><clipPath id="ed4a1dd515"><path d="M 134 711 L 288 711 L 288 762.941406 L 134 762.941406 Z M 134 711 " clip-rule="nonzero"/></clipPath><clipPath id="6a82547117"><path d="M 491 660 L 697 660 L 697 762.941406 L 491 762.941406 Z M 491 660 " clip-rule="nonzero"/></clipPath><clipPath id="89e457b954"><path d="M 610.246094 0 L 810 0 L 810 25.007812 L 610.246094 25.007812 Z M 610.246094 0 " clip-rule="nonzero"/></clipPath><clipPath id="6d1713923e"><path d="M 128 122 L 260 122 L 260 253.660156 L 128 253.660156 Z M 128 122 " clip-rule="nonzero"/></clipPath><clipPath id="f85c0a4fd7"><path d="M 206 14 L 295.855469 14 L 295.855469 104 L 206 104 Z M 206 14 " clip-rule="nonzero"/></clipPath></defs><g clip-path="url(#edebcaf975)"><path fill="#fdde5f" d="M 747.394531 284.460938 L 747.394531 233.449219 L 594.0625 233.449219 L 594.0625 182.28125 L 543.058594 182.28125 L 543.058594 131.265625 L 491.894531 131.265625 L 491.894531 29.085938 L 440.886719 29.085938 L 440.886719 -22.085938 L 389.726562 -22.085938 L 389.726562 29.085938 L 338.5625 29.085938 L 338.5625 131.265625 L 287.558594 131.265625 L 287.558594 182.28125 L 236.394531 182.28125 L 236.394531 233.449219 L 83.21875 233.449219 L 83.21875 284.460938 L 32.058594 284.460938 L 32.058594 386.800781 L 83.21875 386.800781 L 83.21875 437.8125 L 134.226562 437.8125 L 134.226562 711.554688 L 198.257812 758.800781 L 287.558594 711.554688 L 338.5625 660.542969 L 402.4375 634.957031 L 491.894531 660.542969 L 543.058594 711.554688 L 619.488281 752.050781 L 696.230469 711.554688 L 696.230469 437.8125 L 747.394531 437.8125 L 747.394531 386.800781 L 798.558594 386.800781 L 798.558594 284.460938 Z M 747.394531 284.460938 " fill-opacity="1" fill-rule="nonzero"/></g><path fill="#fd8726" d="M 440.886719 609.375 L 338.5625 609.375 L 338.5625 660.542969 L 287.558594 660.542969 L 287.558594 711.710938 L 338.71875 711.710938 L 338.71875 660.542969 L 491.894531 660.542969 L 491.894531 609.375 Z M 440.886719 609.375 " fill-opacity="1" fill-rule="nonzero"/><g clip-path="url(#ed4a1dd515)"><path fill="#fd8726" d="M 185.386719 711.554688 L 134.226562 711.554688 L 134.226562 762.726562 L 287.558594 762.726562 L 287.558594 711.554688 Z M 185.386719 711.554688 " fill-opacity="1" fill-rule="nonzero"/></g><g clip-path="url(#6a82547117)"><path fill="#fd8726" d="M 645.226562 711.554688 L 543.058594 711.554688 L 543.058594 660.542969 L 491.894531 660.542969 L 491.894531 711.710938 L 543.058594 711.710938 L 543.058594 762.726562 L 696.230469 762.726562 L 696.230469 711.554688 Z M 645.226562 711.554688 " fill-opacity="1" fill-rule="nonzero"/></g><path fill="#ffffff" d="M 696.230469 284.460938 L 594.0625 284.460938 L 594.0625 233.449219 L 543.058594 233.449219 L 543.058594 182.28125 L 491.894531 182.28125 L 491.894531 131.265625 L 440.886719 131.265625 L 440.886719 182.28125 L 491.894531 182.28125 L 491.894531 233.449219 L 543.058594 233.449219 L 543.058594 284.460938 L 594.0625 284.460938 L 594.0625 335.632812 L 747.394531 335.632812 L 747.394531 284.460938 Z M 696.230469 284.460938 " fill-opacity="1" fill-rule="nonzero"/><path fill="#ffffff" d="M 338.5625 182.28125 L 287.558594 182.28125 L 287.558594 233.449219 L 338.71875 233.449219 L 338.71875 182.28125 L 389.726562 182.28125 L 389.726562 131.265625 L 338.5625 131.265625 Z M 338.5625 182.28125 " fill-opacity="1" fill-rule="nonzero"/><path fill="#ffffff" d="M 389.726562 29.085938 L 440.886719 29.085938 L 440.886719 80.253906 L 389.726562 80.253906 Z M 389.726562 29.085938 " fill-opacity="1" fill-rule="nonzero"/><path fill="#ffffff" d="M 236.394531 284.460938 L 83.21875 284.460938 L 83.21875 335.632812 L 236.394531 335.632812 L 236.394531 284.617188 L 287.558594 284.617188 L 287.558594 233.449219 L 236.394531 233.449219 Z M 236.394531 284.460938 " fill-opacity="1" fill-rule="nonzero"/><path fill="#4d3c3e" d="M 287.558594 386.800781 L 287.558594 437.8125 L 338.5625 437.8125 L 338.5625 335.632812 L 287.558594 335.632812 Z M 287.558594 386.800781 " fill-opacity="1" fill-rule="nonzero"/><path fill="#4d3c3e" d="M 491.894531 335.632812 L 491.894531 437.8125 L 543.058594 437.8125 L 543.058594 335.632812 Z M 491.894531 335.632812 " fill-opacity="1" fill-rule="nonzero"/><g clip-path="url(#89e457b954)"><path fill="#d2e6ec" d="M 928.269531 -16.246094 L 928.269531 -22.0625 L 922.457031 -22.0625 L 922.457031 -28.03125 L 916.507812 -28.03125 L 916.507812 -33.851562 L 910.695312 -33.851562 L 910.695312 -39.808594 L 898.917969 -39.808594 L 898.917969 -51.597656 L 892.96875 -51.597656 L 892.96875 -57.5625 L 887.15625 -57.5625 L 887.15625 -63.382812 L 881.195312 -63.382812 L 881.195312 -69.347656 L 851.707031 -69.347656 L 851.707031 -63.382812 L 839.929688 -63.382812 L 839.929688 -57.5625 L 828.164062 -57.5625 L 828.164062 -51.597656 L 822.207031 -51.597656 L 822.207031 -39.808594 L 816.394531 -39.808594 L 816.394531 -33.851562 L 798.667969 -33.851562 L 798.667969 -39.808594 L 792.863281 -39.808594 L 792.863281 -45.628906 L 745.644531 -45.628906 L 745.644531 -39.808594 L 739.832031 -39.808594 L 739.832031 -33.851562 L 733.875 -33.851562 L 733.875 -28.03125 L 728.0625 -28.03125 L 728.0625 -22.0625 L 722.105469 -22.0625 L 722.105469 -16.246094 L 710.339844 -16.246094 L 710.339844 -22.0625 L 698.570312 -22.0625 L 698.570312 -28.03125 L 680.84375 -28.03125 L 680.84375 -22.0625 L 663.265625 -22.0625 L 663.265625 -16.246094 L 651.351562 -16.246094 L 651.351562 -4.457031 L 645.539062 -4.457031 L 645.539062 13.292969 L 610.238281 13.292969 L 610.238281 19.261719 L 616.050781 19.261719 L 616.050781 25.082031 L 922.457031 25.082031 L 922.457031 19.261719 L 928.269531 19.261719 L 928.269531 13.292969 L 934.230469 13.292969 L 934.230469 -16.246094 Z M 928.269531 -16.246094 " fill-opacity="1" fill-rule="nonzero"/></g><path fill="#ffffff" d="M 839.929688 -22.0625 L 804.625 -22.0625 L 804.625 -16.246094 L 798.667969 -16.246094 L 798.667969 -4.457031 L 792.863281 -4.457031 L 792.863281 1.507812 L 763.371094 1.507812 L 763.371094 -4.457031 L 745.644531 -4.457031 L 745.644531 1.507812 L 739.832031 1.507812 L 739.832031 7.328125 L 733.875 7.328125 L 733.875 13.292969 L 845.886719 13.292969 L 845.886719 -16.246094 L 839.929688 -16.246094 Z M 839.929688 -22.0625 " fill-opacity="1" fill-rule="nonzero"/><path fill="#ffffff" d="M 733.875 -4.457031 L 739.832031 -4.457031 L 739.832031 -10.277344 L 792.863281 -10.277344 L 792.863281 -28.03125 L 786.90625 -28.03125 L 786.90625 -33.851562 L 757.414062 -33.851562 L 757.414062 -39.808594 L 745.644531 -39.808594 L 745.644531 -33.851562 L 739.832031 -33.851562 L 739.832031 -28.03125 L 733.875 -28.03125 L 733.875 -22.0625 L 728.0625 -22.0625 L 728.0625 -16.246094 L 722.105469 -16.246094 L 722.105469 -10.277344 L 716.296875 -10.277344 L 716.296875 -4.457031 L 704.382812 -4.457031 L 704.382812 1.507812 L 669.074219 1.507812 L 669.074219 7.328125 L 663.265625 7.328125 L 663.265625 13.292969 L 722.105469 13.292969 L 722.105469 7.328125 L 728.0625 7.328125 L 728.0625 1.507812 L 733.875 1.507812 Z M 733.875 -4.457031 " fill-opacity="1" fill-rule="nonzero"/><path fill="#ffffff" d="M 663.265625 -4.457031 L 651.351562 -4.457031 L 651.351562 1.507812 L 663.265625 1.507812 Z M 663.265625 -4.457031 " fill-opacity="1" fill-rule="nonzero"/><path fill="#f1f2f2" d="M 922.457031 -16.246094 L 922.457031 -22.0625 L 916.507812 -22.0625 L 916.507812 -10.277344 L 922.457031 -10.277344 L 922.457031 -4.457031 L 910.695312 -4.457031 L 910.695312 1.507812 L 916.507812 1.507812 L 916.507812 13.292969 L 728.0625 13.292969 L 728.0625 19.261719 L 922.457031 19.261719 L 922.457031 13.292969 L 928.269531 13.292969 L 928.269531 -16.246094 Z M 922.457031 -16.246094 " fill-opacity="1" fill-rule="nonzero"/><path fill="#f1f2f2" d="M 781.09375 -4.457031 L 763.371094 -4.457031 L 763.371094 1.507812 L 781.09375 1.507812 Z M 781.09375 -4.457031 " fill-opacity="1" fill-rule="nonzero"/><path fill="#f1f2f2" d="M 716.296875 13.292969 L 663.265625 13.292969 L 663.265625 7.328125 L 657.308594 7.328125 L 657.308594 13.292969 L 627.820312 13.292969 L 627.820312 19.261719 L 716.296875 19.261719 Z M 716.296875 13.292969 " fill-opacity="1" fill-rule="nonzero"/><g clip-path="url(#6d1713923e)"><path fill="#ffe05d" d="M 259.890625 195.230469 L 259.890625 180.421875 L 201.480469 180.421875 L 201.480469 166.035156 L 216.082031 166.035156 L 216.082031 151.226562 L 201.480469 151.226562 L 201.480469 122.03125 L 186.667969 122.03125 L 186.667969 165.824219 L 172.277344 165.824219 L 172.277344 151.226562 L 157.464844 151.226562 L 157.464844 166.035156 L 172.066406 166.035156 L 172.066406 180.421875 L 128.261719 180.421875 L 128.261719 195.230469 L 186.667969 195.230469 L 186.667969 209.617188 L 172.066406 209.617188 L 172.066406 224.425781 L 186.667969 224.425781 L 186.667969 253.625 L 201.480469 253.625 L 201.480469 209.828125 L 215.871094 209.828125 L 215.871094 224.425781 L 230.683594 224.425781 L 230.683594 209.617188 L 216.082031 209.617188 L 216.082031 195.230469 Z M 186.882812 180.632812 L 201.269531 180.632812 L 201.269531 195.019531 L 186.882812 195.019531 Z M 186.882812 180.632812 " fill-opacity="1" fill-rule="nonzero"/></g><path fill="#ffe05d" d="M 230.472656 136.628906 L 245.285156 136.628906 L 245.285156 151.4375 L 230.472656 151.4375 Z M 230.472656 136.628906 " fill-opacity="1" fill-rule="nonzero"/><path fill="#ffe05d" d="M 142.863281 224.214844 L 157.675781 224.214844 L 157.675781 239.023438 L 142.863281 239.023438 Z M 142.863281 224.214844 " fill-opacity="1" fill-rule="nonzero"/><path fill="#ffe05d" d="M 103.484375 25.394531 L 103.484375 10.585938 L 45.078125 10.585938 L 45.078125 -3.800781 L 59.679688 -3.800781 L 59.679688 -18.609375 L 45.078125 -18.609375 L 45.078125 -47.808594 L 30.261719 -47.808594 L 30.261719 -4.011719 L 15.871094 -4.011719 L 15.871094 -18.609375 L 1.058594 -18.609375 L 1.058594 -3.800781 L 15.660156 -3.800781 L 15.660156 10.585938 L -28.144531 10.585938 L -28.144531 25.394531 L 30.261719 25.394531 L 30.261719 39.78125 L 15.660156 39.78125 L 15.660156 54.589844 L 30.261719 54.589844 L 30.261719 83.785156 L 45.078125 83.785156 L 45.078125 39.992188 L 59.464844 39.992188 L 59.464844 54.589844 L 74.277344 54.589844 L 74.277344 39.78125 L 59.675781 39.78125 L 59.675781 25.394531 Z M 30.476562 10.796875 L 44.863281 10.796875 L 44.863281 25.183594 L 30.472656 25.183594 Z M 30.476562 10.796875 " fill-opacity="1" fill-rule="nonzero"/><path fill="#ffe05d" d="M -13.542969 54.378906 L 1.269531 54.378906 L 1.269531 69.1875 L -13.542969 69.1875 Z M -13.542969 54.378906 " fill-opacity="1" fill-rule="nonzero"/><path fill="#ffe05d" d="M 120.878906 150.675781 L 120.878906 140.621094 L 81.230469 140.621094 L 81.230469 130.855469 L 91.140625 130.855469 L 91.140625 120.800781 L 81.230469 120.800781 L 81.230469 100.980469 L 71.171875 100.980469 L 71.171875 130.710938 L 61.402344 130.710938 L 61.402344 120.800781 L 51.34375 120.800781 L 51.34375 130.855469 L 61.257812 130.855469 L 61.257812 140.621094 L 31.523438 140.621094 L 31.523438 150.675781 L 71.171875 150.675781 L 71.171875 160.441406 L 61.257812 160.441406 L 61.257812 170.496094 L 71.171875 170.496094 L 71.171875 190.316406 L 81.230469 190.316406 L 81.230469 160.585938 L 90.996094 160.585938 L 90.996094 170.496094 L 101.054688 170.496094 L 101.054688 160.445312 L 91.140625 160.445312 L 91.140625 150.679688 Z M 71.316406 140.765625 L 81.085938 140.765625 L 81.085938 150.53125 L 71.316406 150.53125 Z M 71.316406 140.765625 " fill-opacity="1" fill-rule="nonzero"/><path fill="#ffe05d" d="M 100.910156 110.890625 L 110.964844 110.890625 L 110.964844 120.945312 L 100.910156 120.945312 Z M 100.910156 110.890625 " fill-opacity="1" fill-rule="nonzero"/><path fill="#ffe05d" d="M 41.433594 170.351562 L 51.492188 170.351562 L 51.492188 180.402344 L 41.433594 180.402344 Z M 41.433594 170.351562 " fill-opacity="1" fill-rule="nonzero"/><g clip-path="url(#f85c0a4fd7)"><path fill="#ffe05d" d="M 295.855469 64.335938 L 295.855469 54.285156 L 256.207031 54.285156 L 256.207031 44.519531 L 266.117188 44.519531 L 266.117188 34.464844 L 256.207031 34.464844 L 256.207031 14.644531 L 246.148438 14.644531 L 246.148438 44.375 L 236.378906 44.375 L 236.378906 34.464844 L 226.324219 34.464844 L 226.324219 44.519531 L 236.238281 44.519531 L 236.238281 54.285156 L 206.5 54.285156 L 206.5 64.335938 L 246.148438 64.335938 L 246.148438 74.105469 L 236.238281 74.105469 L 236.238281 84.15625 L 246.152344 84.15625 L 246.152344 103.976562 L 256.210938 103.976562 L 256.210938 74.246094 L 265.976562 74.246094 L 265.976562 84.15625 L 276.035156 84.15625 L 276.035156 74.105469 L 266.121094 74.105469 L 266.121094 64.335938 Z M 246.292969 54.429688 L 256.0625 54.429688 L 256.0625 64.195312 L 246.292969 64.195312 Z M 246.292969 54.429688 " fill-opacity="1" fill-rule="nonzero"/></g><path fill="#ffe05d" d="M 275.886719 24.554688 L 285.941406 24.554688 L 285.941406 34.605469 L 275.886719 34.605469 Z M 275.886719 24.554688 " fill-opacity="1" fill-rule="nonzero"/><path fill="#ffe05d" d="M 216.410156 84.011719 L 226.46875 84.011719 L 226.46875 94.066406 L 216.410156 94.066406 Z M 216.410156 84.011719 " fill-opacity="1" fill-rule="nonzero"/><path fill="#ffe05d" d="M 187.4375 62.984375 L 187.4375 54.082031 L 152.324219 54.082031 L 152.324219 45.433594 L 161.101562 45.433594 L 161.101562 36.53125 L 152.324219 36.53125 L 152.324219 18.984375 L 143.417969 18.984375 L 143.417969 45.308594 L 134.773438 45.308594 L 134.773438 36.53125 L 125.871094 36.53125 L 125.871094 45.433594 L 134.648438 45.433594 L 134.648438 54.082031 L 108.316406 54.082031 L 108.316406 62.984375 L 143.421875 62.984375 L 143.421875 71.632812 L 134.644531 71.632812 L 134.644531 80.535156 L 143.421875 80.535156 L 143.421875 98.082031 L 152.324219 98.082031 L 152.324219 71.757812 L 160.972656 71.757812 L 160.972656 80.535156 L 169.878906 80.535156 L 169.878906 71.632812 L 161.101562 71.632812 L 161.101562 62.984375 Z M 143.550781 54.214844 L 152.199219 54.214844 L 152.199219 62.859375 L 143.550781 62.859375 Z M 143.550781 54.214844 " fill-opacity="1" fill-rule="nonzero"/><path fill="#ffe05d" d="M 169.753906 27.757812 L 178.660156 27.757812 L 178.660156 36.660156 L 169.753906 36.660156 Z M 169.753906 27.757812 " fill-opacity="1" fill-rule="nonzero"/><path fill="#ffe05d" d="M 117.09375 80.40625 L 125.996094 80.40625 L 125.996094 89.308594 L 117.09375 89.308594 Z M 117.09375 80.40625 " fill-opacity="1" fill-rule="nonzero"/></svg>